<svg xmlns="http://www.w3.org/2000/svg" viewBox="0 0 496 496"><defs><style>.cls-1{fill:#cfd8dc;}.cls-2{fill:#303742;}</style></defs><title>ic_launcher</title><g id="Capa_2" data-name="Capa 2"><g id="Capa_2-2" data-name="Capa 2"><rect class="cls-1" x="16" y="16" width="464" height="464"/></g><g id="Capa_1-2" data-name="Capa 1"><path class="cls-2" d="M72,144h56v56a8,8,0,0,0,16,0V144h56a8,8,0,0,0,0-16H144V72a8,8,0,0,0-16,0v56H72a8,8,0,0,0,0,16Z"/><path class="cls-2" d="M189.66,306.34a8,8,0,0,0-11.32,0L136,348.69,93.66,306.34a8,8,0,0,0-11.32,11.32L124.69,360,82.34,402.34a8,8,0,1,0,11.32,11.32L136,371.31l42.34,42.35a8,8,0,0,0,11.32-11.32L147.31,360l42.35-42.34A8,8,0,0,0,189.66,306.34Z"/><path class="cls-2" d="M296,144H424a8,8,0,0,0,0-16H296a8,8,0,0,0,0,16Z"/><path class="cls-2" d="M424,352H296a8,8,0,0,0,0,16H424a8,8,0,0,0,0-16Z"/><path class="cls-2" d="M376,320a16,16,0,1,1-16-16A16,16,0,0,1,376,320Z"/><path class="cls-2" d="M376,400a16,16,0,1,1-16-16A16,16,0,0,1,376,400Z"/><path class="cls-2" d="M456,0H40A40.05,40.05,0,0,0,0,40V456a40.05,40.05,0,0,0,40,40H456a40.05,40.05,0,0,0,40-40V40A40.05,40.05,0,0,0,456,0Zm24,456a24,24,0,0,1-24,24H40a24,24,0,0,1-24-24V40A24,24,0,0,1,40,16H456a24,24,0,0,1,24,24Z"/><path class="cls-2" d="M456,240H256V40a8,8,0,0,0-16,0V240H40a8,8,0,0,0,0,16H240V456a8,8,0,0,0,16,0V256H456a8,8,0,0,0,0-16Z"/></g></g></svg>